<svg width="25" height="24" viewBox="0 0 25 24" fill="none" xmlns="http://www.w3.org/2000/svg">
<path d="M1.0022 2.16095H21.5022L15.0022 19.6609L3.0022 21.6609L1.0022 2.16095Z" fill="#D643E3"/>
<path d="M1.89662 3.60816C1.77714 3.84279 1.56845 4.02077 1.31749 4.10343C1.06646 4.18607 0.793703 4.16663 0.558224 4.0489C0.322744 3.93116 0.143541 3.72461 0.0590363 3.47421C-0.0254116 3.22383 -0.00824165 2.9501 0.107771 2.71374C0.107771 2.71374 0.107771 2.71374 0.107771 2.71374C0.747454 1.39513 2.05399 0.424296 3.50991 0.193335C3.75058 0.153726 3.99446 0.133172 4.23827 0.131802C10.2503 0.0880542 16.2624 0.0443062 22.2745 0.000558138C23.2812 -0.0254021 24.191 0.877052 24.1709 1.88867C24.182 2.93676 23.3007 3.74876 22.3902 3.8218C21.8302 3.87807 21.3224 4.04109 21.0604 4.25359C20.8065 4.46399 20.7145 4.66267 20.7094 5.11144C20.7185 6.35897 20.7276 7.60649 20.7367 8.85402C20.9486 16.9327 13.3724 23.7076 5.5022 23.5515C2.8968 23.6275 0.524044 21.2899 0.571642 18.6609C0.556957 16.643 0.542273 14.625 0.527588 12.607C0.527458 12.5918 0.527285 12.5767 0.527069 12.5615C0.519747 12.0451 0.462734 11.5299 0.357237 11.0252C0.2486 10.5018 0.139963 9.97847 0.0313263 9.45512C-0.049572 9.0656 0.0280495 8.66099 0.24877 8.32997C0.469395 7.99897 0.815046 7.76867 1.20802 7.69008C1.601 7.61148 2.00864 7.69112 2.3396 7.9118C2.67066 8.13247 2.89793 8.4761 2.97307 8.86678C2.97307 8.86678 2.97307 8.86678 2.97307 8.86678C3.07408 9.39165 3.17509 9.91653 3.27609 10.4414C3.41021 11.1344 3.47754 11.8399 3.47702 12.5449C3.47701 12.5656 3.47694 12.5863 3.47681 12.607C3.46212 14.625 3.44744 16.643 3.43275 18.6609C3.38969 19.7607 4.37896 20.7851 5.5022 20.7704C12.0296 20.9946 18.3549 15.4731 18.2677 8.85402C18.2768 7.60649 18.2859 6.35897 18.295 5.11144C18.2628 4.18381 18.7411 2.96463 19.6176 2.35528C20.4672 1.73243 21.3558 1.56066 22.1606 1.47882C22.0189 1.49126 21.8369 1.62871 21.8335 1.88867C21.8323 2.12503 22.043 2.32845 22.2745 2.32134C16.2624 2.27759 10.2503 2.23385 4.23827 2.1901C4.10198 2.18871 3.96585 2.19803 3.83124 2.21799C3.01756 2.33366 2.27083 2.86629 1.89662 3.60816Z" fill="black"/>
<path d="M15.3011 5.76911C15.3689 5.72172 15.539 5.50538 15.5519 5.32532C15.5578 5.24377 15.4593 5.19098 15.3758 5.17029C15.2922 5.14959 15.2002 5.16484 15.1263 5.20078C15.0524 5.23671 14.9994 5.29287 15.0023 5.35881C15.0052 5.42476 15.0656 5.49878 15.3163 5.52325" stroke="black" stroke-width="2" stroke-linecap="round"/>
<path d="M8.93598 10.3944C8.94022 10.1292 8.83859 9.87481 8.65098 9.68728C8.46351 9.49974 8.20544 9.39438 7.93598 9.39438C7.66652 9.39438 7.40845 9.49974 7.22099 9.68728C7.03338 9.87481 6.93174 10.1292 6.93598 10.3944C6.94303 10.6912 6.89184 11.0141 6.79479 11.3581C6.32063 13.052 4.75276 15.1971 5.22486 17.7747C5.24915 17.9133 5.28661 18.0528 5.3811 18.2184C5.48698 18.4056 5.67442 18.5859 5.89223 18.6805C6.35537 18.8627 6.60725 18.7579 6.78881 18.7172C7.14945 18.6038 7.35914 18.4617 7.56273 18.3313C7.96483 18.0613 8.29315 17.7802 8.61626 17.492C9.25452 16.9164 9.83419 16.3187 10.4006 15.7068C11.534 14.4196 12.5607 13.4226 13.5905 11.6283C13.5898 11.6296 13.5872 11.6364 13.5791 11.6531C13.5758 11.6598 13.5654 11.6813 13.5481 11.7088C13.52 11.7423 13.5412 11.7548 13.3792 11.8912C13.2912 11.9491 13.199 12.0279 12.9359 12.0332C12.6688 12.0301 12.4705 11.8661 12.3993 11.7731C12.308 11.6568 12.2942 11.5956 12.2787 11.5548C12.2619 11.5013 12.2609 11.4826 12.2596 11.4756C12.2576 11.4528 12.2628 11.496 12.2642 11.5304C12.2681 11.6038 12.2694 11.6961 12.27 11.786C12.271 11.9684 12.2692 12.1603 12.2686 12.3536C12.278 12.7665 12.2324 13.0533 12.3444 13.6783C12.4054 13.9697 12.6757 14.4234 13.1098 14.5653C13.5296 14.707 13.8485 14.6221 14.1011 14.5415C14.6051 14.3596 14.9489 14.0836 15.2656 13.783C15.8808 13.1748 16.3468 12.4163 16.4959 11.5077C16.5782 10.9921 16.5234 10.428 16.3074 9.93139C16.2452 9.78763 16.1273 9.67386 15.981 9.61456C15.8346 9.5553 15.6718 9.55536 15.5271 9.61528C15.3824 9.6752 15.2672 9.79024 15.2056 9.93564C15.1441 10.081 15.1411 10.2448 15.1987 10.3905C15.1987 10.3905 15.1987 10.3905 15.1987 10.3905C15.3108 10.6779 15.333 10.9856 15.2729 11.3029C15.1688 11.8572 14.8155 12.4207 14.3655 12.8312C14.1447 13.0337 13.8803 13.205 13.6792 13.2644C13.583 13.2975 13.5169 13.274 13.5832 13.2877C13.6619 13.307 13.7043 13.409 13.6833 13.3443C13.68 13.3313 13.6674 13.0972 13.6708 12.934C13.6721 12.755 13.6779 12.5691 13.6845 12.3804C13.691 12.1915 13.6989 11.9998 13.7041 11.8009C13.7065 11.7012 13.7088 11.5995 13.7067 11.4832C13.7044 11.4178 13.7062 11.3718 13.6899 11.2515C13.6854 11.2234 13.6784 11.175 13.6555 11.1034C13.6353 11.0482 13.6164 10.9764 13.5193 10.853C13.4432 10.754 13.2396 10.5869 12.9668 10.5837C12.6977 10.5891 12.602 10.6697 12.5089 10.7313C12.3355 10.877 12.352 10.8975 12.3176 10.9406C12.2946 10.9769 12.2758 11.0148 12.2687 11.0297C12.2518 11.0648 12.24 11.0939 12.2294 11.1218C11.5833 12.1073 10.3094 13.4999 9.23699 14.5988C8.67613 15.1681 8.10121 15.7227 7.51003 16.2225C7.21519 16.4704 6.91145 16.7084 6.62908 16.8838C6.49796 16.9671 6.33883 17.0412 6.31168 17.0421C6.30398 17.0535 6.34309 16.9858 6.61185 17.0838C6.73673 17.1363 6.85229 17.2501 6.90322 17.3423C6.94981 17.4234 6.95838 17.472 6.96347 17.4944C6.66759 15.7567 7.8691 14.1716 8.67137 11.9239C8.81849 11.4591 8.92943 10.944 8.93598 10.3944Z" fill="black"/>
</svg>
