<svg width="16" height="18" viewBox="0 0 16 18" fill="none" xmlns="http://www.w3.org/2000/svg">
<path d="M1 10.1919C1.01073 10.4181 1.02146 10.6443 1.04844 11.5887C1.07542 12.5331 1.11834 14.1888 1.13508 15.0725C1.15299 16.0179 1.13004 16.2564 1.21586 16.4853C1.30318 16.7182 1.71456 16.3932 2.901 16.3521C4.02316 16.3132 6.2009 16.2287 7.41937 16.1657C8.63783 16.1028 8.83094 16.0616 9.26299 16.0147C9.69505 15.9678 10.3602 15.9164 10.7511 15.8848C11.4451 15.8286 11.8134 15.8117 12.4896 15.796C13.0051 15.784 13.6339 15.7494 14.2076 15.7439C14.4148 15.742 14.6846 15.77 14.9558 15.7545C15.1103 15.7457 14.8166 15.4381 14.7362 14.7997C14.6621 14.212 14.4948 13.0918 14.4119 12.3242C14.2883 11.1793 14.3397 10.7428 14.356 10.5674C14.3615 10.2068 14.3722 9.93258 14.3885 9.82398C14.394 9.75651 14.394 9.66396 14.394 9.5686" stroke="#9E198C" stroke-width="2" stroke-linecap="round"/>
<path d="M4.19238 8.16792C4.33077 8.31409 4.46916 8.46027 5.00883 8.96746C5.54851 9.47464 6.48529 10.3384 7.00512 10.81C7.70829 11.4478 7.93303 11.6697 8.10045 11.872C8.13619 11.9152 8.18077 11.9524 8.224 11.9796C8.26722 12.0067 8.3098 12.02 8.34238 11.9339C8.53062 11.436 8.63238 11.056 9.12529 10.2724C9.30655 9.98419 9.57432 9.65142 9.81771 9.2741C10.3053 8.51819 10.6001 7.96778 10.7504 7.74671C10.8582 7.5655 10.9872 7.37704 11.1216 7.18938C11.1708 7.10804 11.1814 7.05489 11.1924 7.00012" stroke="#9E198C" stroke-width="2" stroke-linecap="round"/>
<path d="M7.19238 1.00012C7.69238 6.00012 7.69238 6.00012 7.99183 9.47377" stroke="#9E198C" stroke-width="2" stroke-linecap="round"/>
</svg>
