<svg width="12" height="14" viewBox="0 0 12 14" fill="none" xmlns="http://www.w3.org/2000/svg">
<path d="M3.46048 11.2799C-1.06965 8.01339 0.314767 2.28516 5.43723 2.28516" stroke="#D643E3" stroke-width="1.43997" stroke-linecap="round"/>
<path d="M4.58984 0.719971C4.66209 0.785178 4.88897 0.981788 5.27115 1.33203C5.92098 1.92755 6.03921 2.23357 6.15402 2.42639C6.19915 2.5022 6.268 2.55302 6.30919 2.60769C6.41139 2.74334 6.01403 2.99037 5.82657 3.20032C5.66674 3.39808 5.52088 3.57329 5.40676 3.73828C5.37474 3.77154 5.33861 3.79328 5.21929 3.88154" stroke="#D643E3" stroke-width="1.43997" stroke-linecap="round"/>
<path d="M8.14304 2.15993C12.6732 5.42642 11.2887 11.1547 6.16628 11.1547" stroke="#D643E3" stroke-width="1.43997" stroke-linecap="round"/>
<path d="M7.01367 12.7198C6.94142 12.6546 6.71455 12.458 6.33236 12.1078C5.68254 11.5123 5.5643 11.2062 5.4495 11.0134C5.40436 10.9376 5.33551 10.8868 5.29432 10.8321C5.19213 10.6965 5.58948 10.4494 5.77695 10.2395C5.93677 10.0417 6.08264 9.86653 6.19676 9.70154C6.22878 9.66828 6.2649 9.64654 6.38422 9.55828" stroke="#D643E3" stroke-width="1.43997" stroke-linecap="round"/>
</svg>
